<svg xmlns="http://www.w3.org/2000/svg" width="40" height="40" fill="none">
    <path class="path-to-change" fill="white"
          d="m37.056 37.118 1.63-1.875A4.456 4.456 0 0 0 40 32.073c0-1.196-.467-2.325-1.395-3.241l-4.077-3.122a4.492 4.492 0 0 0-6.338-.005l-2.553 2.49c-6.134-2.498-11.13-7.5-13.824-13.838l2.48-2.542c1.749-1.748 1.749-4.593.072-6.26L11.1 1.317C9.405-.378 6.412-.338 4.8 1.278L2.843 2.985C1.008 4.81 0 7.288 0 9.96 0 22.875 17.125 40 30.04 40c2.672 0 5.148-1.008 7.017-2.882ZM9.849 2.41l3.265 4.238a2.826 2.826 0 0 1-.006 3.994l-2.87 2.943a.835.835 0 0 0-.177.893c2.882 7.175 8.522 12.814 15.476 15.467a.833.833 0 0 0 .879-.18l2.943-2.87.007-.008c1.065-1.067 2.84-1.135 4.067.071l4.076 3.122c1.098 1.098 1.098 2.885-.038 4.027l-1.632 1.875c-1.513 1.516-3.573 2.351-5.798 2.351-11.933 0-28.373-16.44-28.373-28.373 0-2.225.835-4.285 2.311-5.76l1.959-1.708a2.858 2.858 0 0 1 2.025-.834c.698 0 1.385.254 1.888.754l-.002-.002Z"/>
    <path fill="#1E84B5" d="M38.333 17.5a.834.834 0 0 0 1.667 0C40 7.85 32.15 0 22.5 0a.834.834 0 0 0 0 1.667c8.73 0 15.833 7.103 15.833 15.833Z"/>
    <path fill="#1E84B5" d="M22.5 6.667c5.973 0 10.833 4.86 10.833 10.833a.834.834 0 0 1-1.666 0c0-5.055-4.112-9.167-9.167-9.167a.834.834 0 0 1 0-1.666Z"/>
</svg>