<?xml version="1.0" encoding="UTF-8"?>
<!DOCTYPE svg PUBLIC "-//W3C//DTD SVG 1.1//EN" "http://www.w3.org/Graphics/SVG/1.1/DTD/svg11.dtd">
<!-- Creator: CorelDRAW -->
<svg xmlns="http://www.w3.org/2000/svg" xml:space="preserve" width="2048px" height="2048px" style="shape-rendering:geometricPrecision; text-rendering:geometricPrecision; image-rendering:optimizeQuality; fill-rule:evenodd; clip-rule:evenodd"
viewBox="0 0 2048 2048"
 xmlns:xlink="http://www.w3.org/1999/xlink">
 <defs>
  <style type="text/css">
   <![CDATA[
    .fil1 {fill:none}
    .fil0 {fill:#212121;fill-rule:nonzero}
   ]]>
  </style>
 </defs>
 <g id="Layer_x0020_1">
  <metadata id="CorelCorpID_0Corel-Layer"/>
  <path class="fil0" d="M1195.22 1442.83c-0.0295276,0.94252 -11.4591,327.795 110.503,279.356 16.2555,-10.7858 126.051,-96.1016 189.757,-469.248l31.5 5.3752 -31.5437 -5.38583c0.693308,-4.063 2.1248,-7.81418 4.13268,-11.1425 18.1736,-36.1914 261.384,-533.817 14.8996,-783.477l-0.0637796 0.0625985c-2.62677,-2.65984 -4.69016,-5.66339 -6.19489,-8.86418 -8.49686,-14.8665 -22.976,-28.7681 -42.2646,-41.6032 -84.7938,-56.4201 -249.018,-85.9949 -418.275,-87.9225 -170.051,-1.93819 -343.123,24.1642 -444.475,79.1032 -29.615,16.0524 -52.2933,34.2272 -65.7331,54.4252l-26.6256 -17.6256 26.641 17.7272c-1.50591,2.26417 -3.25158,4.27087 -5.17914,6.01654 -252.705,258.624 15.1299,780.204 17.1957,784.241l0.0708662 -0.0366142c1.76102,3.47126 2.82874,7.1126 3.25512,10.7658 63.7477,371.723 173.236,456.815 189.467,467.588 121.963,48.4394 110.532,-278.413 110.503,-279.356 -5.55473,-169.445 34.5437,-280.634 87.7052,-332.005 25.389,-24.5339 54.1205,-36.802 83.5099,-36.802 29.3894,0 58.1209,12.2681 83.5099,36.802 53.1615,51.3709 93.2599,162.561 87.7052,332.005zm124.454 308.26l12.3756 29.5004c-216.19,90.7997 -200.619,-338.529 -200.581,-339.761 4.89922,-149.464 -26.4071,-243.614 -68.2052,-284.005 -12.9685,-12.5315 -26.4461,-18.7996 -39.2587,-18.7996 -12.8126,0 -26.2902,6.26812 -39.2587,18.7996 -41.7981,40.3902 -73.1044,134.539 -68.2052,284.005 0.0377953,1.22835 15.489,427.914 -198.654,340.511 -1.89921,-0.659056 -3.76536,-1.50473 -5.57126,-2.54882l16.0205 -27.7016 -16.0004 27.6248c-0.426378,-0.245669 -147.809,-81.5741 -221.987,-510.368 -26.0587,-52.5343 -274.644,-574.42 -4.58741,-852.373 19.5874,-28.3866 49.5201,-52.7244 87.1843,-73.141 110.804,-60.0626 295.54,-88.6512 475.226,-86.6032 180.48,2.0563 357.929,35.1473 453.025,98.4225 27.0874,18.0236 48.2233,38.7567 61.9347,62.2571 268.607,278.184 20.5654,798.958 -5.46969,851.437 -67.9087,392.551 -197.147,493.881 -218.841,508.389 -2.04331,1.52244 -4.3004,2.82638 -6.75591,3.85748l-12.391 -29.504z"/>
  <path class="fil0" d="M1403.13 578.007c8.42245,15.5327 27.8433,21.2977 43.376,12.8752 15.5327,-8.42245 21.2977,-27.8433 12.8752,-43.376 -11.2724,-20.7957 -29.4461,-39.0307 -53.0906,-54.763 -76.617,-50.98 -218.972,-77.6339 -363.526,-79.2816 -143.76,-1.63819 -291.743,21.3307 -380.755,69.5812l15.1252 28.1256 -15.2504 -28.1327 -0.590552 0.329528c-31.252,17.0291 -56.0528,37.5685 -72.1524,61.7658 -9.73347,14.7047 -5.70473,34.5177 9.00001,44.2512 14.7047,9.73347 34.5177,5.70473 44.2512,-9.00001 9.9508,-14.9539 27.0886,-28.6264 49.6382,-40.8957l0.354331 -0.185433 -0.00354331 -0.00590552 0.00354331 -0.0011811 -0.0283465 -0.0519685c79.5733,-43.0902 215.835,-63.5563 349.907,-62.0292 133.332,1.5189 262.461,24.6567 328.775,68.7815 14.8878,9.90591 25.9087,20.6091 32.0906,32.0126z"/>
 </g>
 <rect class="fil1" width="2048" height="2048"/>
</svg>
