<svg xmlns="http://www.w3.org/2000/svg" xml:space="preserve" width="2048" height="2048" style="shape-rendering:geometricPrecision;text-rendering:geometricPrecision;image-rendering:optimizeQuality;fill-rule:evenodd;clip-rule:evenodd"><defs><style>.fil0{fill-rule:nonzero}</style></defs><g id="Layer_x0020_1"><path d="M1551.39 561.432c12.495 12.495 32.755 12.495 45.25 0 12.495-12.495 12.495-32.755 0-45.25L1424.467 344.01c-12.495-12.495-32.755-12.495-45.25 0-12.495 12.494-12.495 32.755 0 45.25l172.173 172.172zM1455.11 657.712c12.495 12.495 32.755 12.495 45.25 0 12.495-12.495 12.495-32.755 0-45.25L1328.187 440.29c-12.495-12.495-32.755-12.495-45.25 0-12.495 12.494-12.495 32.755 0 45.25l172.173 172.172zM1358.83 753.992c12.495 12.495 32.755 12.495 45.25 0 12.495-12.495 12.495-32.755 0-45.25L1231.907 536.57c-12.495-12.495-32.755-12.495-45.25 0-12.495 12.494-12.495 32.755 0 45.25l172.173 172.172zM1262.55 850.272c12.495 12.495 32.755 12.495 45.25 0 12.495-12.495 12.495-32.755 0-45.25L1135.628 632.85c-12.495-12.495-32.755-12.495-45.25 0-12.495 12.494-12.495 32.755 0 45.25l172.172 172.172zM1327.82 319.624c17.465-2.554 29.554-18.785 27-36.25-2.554-17.465-18.785-29.554-36.25-27-141.225 20.796-169.257 103.487-195.546 181.036-16.985 50.103-32.998 97.34-94.026 107.912-17.396 2.968-29.093 19.478-26.125 36.875 2.969 17.396 19.48 29.093 36.876 26.125 98.576-17.076 120.51-81.78 143.776-150.412 20.21-59.617 41.76-123.186 144.295-138.285z" class="fil0"/><path d="M1340.31 885.954c.207-.157.411-.318.614-.482.184-.149.792-.738 1.845-1.792l287.072-287.07a23.81 23.81 0 0 0 6.99-16.887 23.807 23.807 0 0 0-6.99-16.885l-.001-.001c-4.658-4.658-10.772-6.989-16.885-6.989-6.114 0-12.226 2.33-16.884 6.989l-.001.001-284.967 284.966.002.002a32.196 32.196 0 0 1-4.893 4.015l-183.907 138.671-.885-1.173-.01.016.911 1.208a32.393 32.393 0 0 1-3.143 2.092l-.385.298a31.99 31.99 0 0 1-3.78 3.801l-696.88 690.722c-4.683 4.647-7.047 10.71-7.081 16.752v.043h.124a32.589 32.589 0 0 1-.057 1.77c.409 5.485 2.685 10.845 6.83 15.022 4.646 4.683 10.71 7.047 16.752 7.08h.044V1728c.594.002 1.183.022 1.77.057 5.485-.41 10.843-2.685 15.02-6.83l695.481-689.334 22.5 22.626-22.527-22.728a32.181 32.181 0 0 1 4.78-3.905l185.308-139.726 19.25 25.5-19.266-25.55a32.258 32.258 0 0 1 3.25-2.156zm40.864 49.018a89.38 89.38 0 0 1-4.8 3.628c-.256.207-.516.411-.782.611l-.03-.04-185.335 139.745-693.693 687.563c-16.299 16.172-37.333 24.614-58.558 25.345-1.145.12-2.309.18-3.487.176v-.124c-22.427-.088-44.8-8.708-61.792-25.832-16.172-16.299-24.614-37.333-25.346-58.559-.119-1.145-.18-2.309-.176-3.488h.124c.089-22.426 8.709-44.798 25.832-61.79l695.541-689.395a32.267 32.267 0 0 1 2.939-3.349l.064.065a89.387 89.387 0 0 1 6.75-6.05 82.645 82.645 0 0 1 4.66-3.49c.23-.185.466-.367.703-.546l.03.04.004-.004 183.37-138.263 283.627-283.627h.002c17.159-17.16 39.65-25.74 62.134-25.74 22.485 0 44.976 8.58 62.135 25.74h.002c17.159 17.16 25.74 39.651 25.74 62.136 0 22.486-8.581 44.975-25.74 62.137L1388.02 928.93c-1.737 1.737-4.035 3.76-6.846 6.042zM411.05 1704.208v.041m23.649 23.875h.041" class="fil0"/></g><path d="M0 0h2048v2048H0z" style="fill:none"/></svg>