<svg xmlns="http://www.w3.org/2000/svg" width="40" height="40" fill="none"><path fill="#fff" fill-rule="evenodd" d="M19.183 1.04a19.503 19.503 0 0 0-12.53 5.698c-2.96 2.98-4.852 6.772-5.498 11.014-.208 1.363-.206 4.014.002 5.437 1.069 7.28 6.061 13.337 12.94 15.7 1.854.637 4.173 1.064 5.772 1.064.513 0 .621-.029.806-.214.278-.277.283-.683.013-.953-.175-.174-.323-.21-1.11-.262-2.104-.141-4.008-.552-5.741-1.239-4.255-1.684-7.655-4.817-9.623-8.868-1.18-2.425-1.736-4.651-1.84-7.357-.222-5.719 2.422-11.396 6.922-14.87C14.84 1.913 22.124 1.158 28.42 4.208c1.821.883 3.486 2.104 5.01 3.674 1.42 1.465 2.323 2.739 3.22 4.543 1.267 2.55 1.849 5.075 1.85 8.026.002 2.924-.545 5.311-1.814 7.922-.498 1.025-1.739 3.048-1.869 3.048-.025 0 .004-.613.064-1.362.088-1.088.089-1.407.002-1.588-.282-.589-1.103-.502-1.274.135-.094.353-.36 3.583-.358 4.365.002.784.391 1.237 1.064 1.235.157 0 1.266-.254 2.463-.563 1.856-.479 2.206-.595 2.373-.787.108-.124.196-.317.196-.427 0-.26-.29-.626-.547-.691-.114-.028-.77.1-1.5.292-.712.189-1.31.33-1.326.313-.017-.017.187-.334.454-.705 1.716-2.392 2.91-5.478 3.368-8.706.165-1.16.141-3.958-.044-5.215-.419-2.83-1.516-5.688-3.082-8.022-3.914-5.837-10.51-9.1-17.487-8.655Zm-.59 5.873c-3.821.622-7.097 2.708-9.208 5.863-3.05 4.557-3.05 10.355.003 14.92 1.951 2.918 5.026 4.978 8.575 5.745 1.28.277 3.881.275 5.168-.002 3.863-.834 7.054-3.117 9.029-6.459 1.843-3.119 2.32-6.918 1.311-10.453-1.353-4.746-5.35-8.437-10.275-9.485-1.15-.245-3.49-.31-4.603-.13Zm-.149 1.483c-1.13.205-3.211.93-3.213 1.12 0 .042.175.383.39.757.216.374.392.78.392.905 0 .325-.362.653-.72.653-.354 0-.525-.17-.985-.98-.184-.323-.372-.587-.419-.587-.169 0-1.355.978-1.986 1.639-.922.965-1.429 1.668-1.276 1.77.065.043.363.218.662.388.888.505 1.11.957.68 1.387-.323.323-.676.279-1.44-.178-.36-.214-.68-.39-.711-.39-.089-.002-.564 1.19-.799 2.006-.188.654-.301 1.24-.438 2.273l-.042.318.915.03c.887.028.922.037 1.133.283.17.198.207.312.165.522-.104.517-.3.614-1.308.647l-.905.03.042.318c.137 1.032.25 1.619.438 2.273.235.815.71 2.008.799 2.006.031 0 .351-.176.71-.39.765-.457 1.118-.5 1.44-.178.43.43.209.882-.679 1.387-.299.17-.598.346-.666.39-.252.168 1.503 2.146 2.7 3.042.267.2.523.365.568.365.046 0 .233-.265.417-.588.46-.81.63-.98.984-.98.362 0 .721.328.721.658 0 .127-.191.556-.425.954l-.426.723.578.262c1.086.493 2.987.972 3.865.973h.24v-.874c0-.813.014-.89.213-1.088a.656.656 0 0 1 .965 0c.2.198.214.274.214 1.1v.888l.544-.051c1.13-.106 2.582-.495 3.74-1.004l.408-.18-.43-.766c-.237-.422-.43-.857-.43-.967-.001-.306.372-.627.728-.627.355 0 .565.216 1.048 1.08l.319.57.454-.324c.663-.473 1.908-1.695 2.458-2.412.262-.343.477-.645.477-.672 0-.026-.312-.229-.694-.45-.382-.223-.758-.5-.835-.618-.177-.27-.098-.692.162-.875.312-.218.66-.151 1.376.262.374.215.697.391.718.391.074 0 .653-1.467.833-2.108.142-.506.44-2.142.442-2.433 0-.031-.41-.07-.911-.087-.805-.026-.935-.052-1.106-.224a.689.689 0 0 1-.194-.502.69.69 0 0 1 .194-.503c.171-.17.3-.197 1.11-.223l.916-.03-.054-.406c-.133-1.007-.332-1.919-.578-2.655-.22-.66-.531-1.397-.642-1.523-.014-.015-.336.151-.716.37-.407.235-.8.399-.956.399-.57 0-.893-.626-.549-1.063.101-.129.476-.395.834-.593.358-.197.65-.38.65-.407 0-.027-.194-.31-.43-.63-.496-.669-1.84-1.99-2.505-2.464l-.454-.324-.32.57c-.482.864-.692 1.08-1.047 1.08-.356 0-.729-.321-.729-.627 0-.11.193-.543.428-.963.485-.863.524-.759-.428-1.148-.797-.327-2.378-.724-3.165-.795l-.666-.06v.886c0 .825-.015.901-.213 1.1a.656.656 0 0 1-.966 0c-.199-.198-.214-.275-.214-1.088V8.26l-.37.008a8.544 8.544 0 0 0-1.03.127Z" clip-rule="evenodd"/><path fill="#1E84B5" fill-rule="evenodd" d="M19.183 1.04a19.503 19.503 0 0 0-12.53 5.698c-2.96 2.98-4.852 6.772-5.498 11.014-.208 1.363-.206 4.014.002 5.437 1.069 7.28 6.061 13.337 12.94 15.7 1.854.637 4.173 1.064 5.772 1.064.513 0 .621-.029.806-.214.278-.277.283-.683.013-.953-.175-.174-.323-.21-1.11-.262-2.104-.141-4.008-.552-5.741-1.239-4.255-1.684-7.655-4.817-9.623-8.868-1.18-2.425-1.736-4.651-1.84-7.357-.222-5.719 2.422-11.396 6.922-14.87C14.84 1.913 22.124 1.158 28.42 4.208c1.821.883 3.486 2.104 5.01 3.674 1.42 1.465 2.323 2.739 3.22 4.543 1.267 2.55 1.849 5.075 1.85 8.026.002 2.924-.545 5.311-1.814 7.922-.498 1.025-1.739 3.048-1.869 3.048-.025 0 .004-.613.064-1.362.088-1.088.089-1.407.002-1.588-.282-.589-1.103-.502-1.274.135-.094.353-.36 3.583-.358 4.365.002.784.391 1.237 1.064 1.235.157 0 1.266-.254 2.463-.563 1.856-.479 2.206-.595 2.373-.787.108-.124.196-.317.196-.427 0-.26-.29-.626-.547-.691-.114-.028-.77.1-1.5.292-.712.189-1.31.33-1.326.313-.017-.017.187-.334.454-.705 1.716-2.392 2.91-5.478 3.368-8.706.165-1.16.141-3.958-.044-5.215-.419-2.83-1.516-5.688-3.082-8.022-3.914-5.837-10.51-9.1-17.487-8.655Z" clip-rule="evenodd"/><path fill="#fff" d="m19.453 12.571.192-.192a.63.63 0 0 1 .433-.191.63.63 0 0 1 .433.191l.192.192v3.484c0 3.073.015 3.513.128 3.734.07.138.686 1.202 1.367 2.366.869 1.483 1.24 2.187 1.24 2.354a.618.618 0 0 1-.518.616c-.198.038-.288.005-.479-.176-.247-.233-2.711-4.399-2.882-4.87-.074-.206-.1-1.175-.102-3.891l-.004-3.617Z"/></svg>